<?xml version="1.0" standalone="no"?>
<!DOCTYPE svg PUBLIC "-//W3C//DTD SVG 20010904//EN"
 "http://www.w3.org/TR/2001/REC-SVG-20010904/DTD/svg10.dtd">
<svg version="1.0" xmlns="http://www.w3.org/2000/svg"
 width="150.000000pt" height="100.000000pt" viewBox="0 0 150.000000 100.000000"
 preserveAspectRatio="xMidYMid meet">

<g transform="translate(0.000000,100.000000) scale(0.100000,-0.100000)"
fill="#000000" stroke="none">
<path d="M546 558 c-3 -7 -14 -42 -25 -77 -12 -36 -21 -69 -21 -73 0 -16 30
-7 40 12 6 11 20 20 31 20 12 0 23 -8 26 -20 5 -18 43 -30 43 -13 0 5 -12 43
-26 85 -20 62 -30 78 -45 78 -11 0 -21 -6 -23 -12z m34 -69 c0 -10 -6 -19 -14
-19 -9 0 -12 8 -8 25 5 28 22 24 22 -6z"/>
<path d="M680 542 c0 -11 -7 -22 -15 -26 -8 -3 -15 -10 -15 -16 0 -5 7 -10 15
-10 10 0 15 -10 15 -34 0 -37 19 -60 46 -54 25 5 28 25 4 31 -27 7 -27 47 0
54 25 7 26 33 1 33 -12 0 -18 7 -17 17 0 10 -7 19 -16 21 -12 2 -18 -3 -18
-16z"/>
<path d="M800 541 c0 -10 -7 -21 -15 -25 -8 -3 -15 -10 -15 -16 0 -5 7 -10 15
-10 11 0 15 -11 15 -40 0 -34 4 -41 24 -46 25 -6 46 1 46 15 0 5 -9 11 -20 14
-14 3 -20 14 -20 31 0 19 5 26 20 26 11 0 20 7 20 15 0 8 -9 15 -20 15 -13 0
-20 7 -20 20 0 11 -7 20 -15 20 -8 0 -15 -9 -15 -19z"/>
<path d="M900 501 c-27 -51 8 -107 61 -99 36 5 36 28 0 28 -17 0 -31 5 -31 10
0 6 16 10 35 10 37 0 44 14 25 51 -7 13 -21 19 -45 19 -24 0 -38 -6 -45 -19z
m60 -22 c0 -5 -7 -9 -15 -9 -15 0 -20 12 -9 23 8 8 24 -1 24 -14z"/>
</g>
</svg>
